HIERARCHY
ROOT Hips
{
	OFFSET 0.000000 0.000000 0.000000
	CHANNELS 6 Xposition Yposition Zposition Xrotation Yrotation Zrotation
	JOINT LeftUpLeg_virtual
	{
		OFFSET 0.000000 0.000000 0.000000
		CHANNELS 3 Xrotation Yrotation Zrotation
		JOINT LeftUpLeg
		{
			OFFSET 10.205400 -3.823500 0.155100
			CHANNELS 3 Xrotation Yrotation Zrotation
			JOINT LeftLeg
			{
				OFFSET 0.708757 -12.982077 0.567790
				CHANNELS 3 Xrotation Yrotation Zrotation
				JOINT LeftFoot
				{
					OFFSET -0.708756 -10.717838 -2.184338
					CHANNELS 3 Xrotation Yrotation Zrotation
					JOINT LeftToeBase
					{
						OFFSET 0.108149 -7.191104 7.560241
						CHANNELS 3 Xrotation Yrotation Zrotation
						JOINT LeftToe_End
						{
							OFFSET 0.070230 0.081724 4.490308
							CHANNELS 3 Xrotation Yrotation Zrotation
							End Site
							{
								OFFSET 0 0 0
							}
						}
					}
				}
			}
		}
	}
	JOINT RightUpLeg_virtual
	{
		OFFSET 0.000000 0.000000 0.000000
		CHANNELS 3 Xrotation Yrotation Zrotation
		JOINT RightUpLeg
		{
			OFFSET -10.205400 -3.823500 0.005500
			CHANNELS 3 Xrotation Yrotation Zrotation
			JOINT RightLeg
			{
				OFFSET -0.708756 -12.982134 0.610632
				CHANNELS 3 Xrotation Yrotation Zrotation
				JOINT RightFoot
				{
					OFFSET 0.708754 -10.717769 -1.945823
					CHANNELS 3 Xrotation Yrotation Zrotation
					JOINT RightToeBase
					{
						OFFSET -0.108140 -7.191069 7.372968
						CHANNELS 3 Xrotation Yrotation Zrotation
						JOINT RightToe_End
						{
							OFFSET -0.070227 0.081735 4.479403
							CHANNELS 3 Xrotation Yrotation Zrotation
							End Site
							{
								OFFSET 0 0 0
							}
						}
					}
				}
			}
		}
	}
	JOINT Spine_virtual
	{
		OFFSET 0.000000 0.000000 0.000000
		CHANNELS 3 Xrotation Yrotation Zrotation
		JOINT Spine
		{
			OFFSET 0.000000 6.876099 0.125700
			CHANNELS 3 Xrotation Yrotation Zrotation
			JOINT Spine1
			{
				OFFSET 0.000000 5.730043 0.104720
				CHANNELS 3 Xrotation Yrotation Zrotation
				JOINT Spine1_split
				{
					OFFSET 0.000000 5.730043 0.104720
					CHANNELS 3 Xrotation Yrotation Zrotation
					JOINT Spine2
					{
						OFFSET 0.000000 5.730043 0.104720
						CHANNELS 3 Xrotation Yrotation Zrotation
						JOINT Neck_virtual
						{
							OFFSET 0.000000 0.000000 0.000000
							CHANNELS 3 Xrotation Yrotation Zrotation
							JOINT Neck
							{
								OFFSET 0.000000 10.314075 0.188496
								CHANNELS 3 Xrotation Yrotation Zrotation
								JOINT Head
								{
									OFFSET 0.000000 7.643700 -2.377400
									CHANNELS 3 Xrotation Yrotation Zrotation
									JOINT HeadTop_End
									{
										OFFSET 0.000000 43.788605 -13.619600
										CHANNELS 3 Xrotation Yrotation Zrotation
										End Site
										{
											OFFSET 0 0 0
										}
									}
								}
							}
						}
						JOINT LeftShoulder_virtual
						{
							OFFSET 0.000000 0.000000 0.000000
							CHANNELS 3 Xrotation Yrotation Zrotation
							JOINT LeftShoulder
							{
								OFFSET 2.196100 4.412489 0.087492
								CHANNELS 3 Xrotation Yrotation Zrotation
								JOINT LeftShoulder_split
								{
									OFFSET 2.196100 4.412489 0.087492
									CHANNELS 3 Xrotation Yrotation Zrotation
									JOINT LeftArm
									{
										OFFSET 8.771219 -2.981674 -0.026999
										CHANNELS 3 Xrotation Yrotation Zrotation
										JOINT LeftForeArm
										{
											OFFSET 8.512804 0.000000 -0.000000
											CHANNELS 3 Xrotation Yrotation Zrotation
											JOINT LeftHand
											{
												OFFSET 18.484802 0.000000 -0.000000
												CHANNELS 3 Xrotation Yrotation Zrotation
												End Site
												{
													OFFSET 0 0 0
												}
											}
										}
									}
								}
							}
						}
						JOINT RightShoulder_virtual
						{
							OFFSET 0.000000 0.000000 0.000000
							CHANNELS 3 Xrotation Yrotation Zrotation
							JOINT RightShoulder
							{
								OFFSET -2.196100 4.412496 0.070690
								CHANNELS 3 Xrotation Yrotation Zrotation
								JOINT RightShoulder_split
								{
									OFFSET -2.196100 4.412496 0.070690
									CHANNELS 3 Xrotation Yrotation Zrotation
									JOINT RightArm
									{
										OFFSET -8.771282 -2.981682 -0.094208
										CHANNELS 3 Xrotation Yrotation Zrotation
										JOINT RightForeArm
										{
											OFFSET -8.494598 0.000000 0.000000
											CHANNELS 3 Xrotation Yrotation Zrotation
											JOINT RightHand
											{
												OFFSET -18.483803 0.000000 0.000001
												CHANNELS 3 Xrotation Yrotation Zrotation
												End Site
												{
													OFFSET 0 0 0
												}
											}
										}
									}
								}
							}
						}
					}
				}
			}
		}
	}
}
MOTION
Frames: 8
Frame Time: 0.03333333
0.142701 29.998951 15.638779 0.000000 0.000000 0.000000 29.549837 1.122384 -9.608499 -88.802841 -0.404744 18.645686 57.110647 3.479752 -9.548091 6.855967 -2.823249 13.522730 -1.497753 1.608344 4.136602 0.000000 0.000000 0.000000 30.826269 2.876829 -11.115795 -4.235740 -31.830348 -23.304276 72.335446 27.337018 -1.709633 5.283000 -35.528288 14.346978 -6.010974 5.499119 2.318964 0.000000 0.000000 0.000000 30.902457 9.249494 -14.349824 5.006087 6.926199 -12.330350 11.690894 9.536165 -4.870646 0.210341 0.247989 0.063477 0.000000 0.000000 0.000000 15.763443 10.592891 -5.600644 -17.851533 0.278224 13.191414 -33.817769 -35.892706 11.762188 0.000000 0.000000 0.000000 12.368653 9.882736 -5.466048 0.127947 3.850717 -1.403969 5.947744 0.350069 -0.233872 7.956012 -40.588314 -31.661492 -14.608506 -30.312257 -7.208565 0.000000 0.000000 0.000000 14.026053 9.795243 -4.746116 -3.036595 13.452258 -12.989609 -1.374266 -0.210258 0.646564 -38.643588 61.659799 62.706041 -16.979698 27.023145 0.687648 0.000000 0.000000 0.000000 
0.062097 29.786142 16.222206 0.000000 0.000000 0.000000 27.685564 2.839142 -9.312459 -86.678058 0.496890 17.659343 58.087774 4.203141 -9.107698 3.514576 -2.639600 12.783997 -0.991664 1.441349 4.030452 0.000000 0.000000 0.000000 28.982374 4.081765 -10.696659 -7.117705 -29.835178 -22.374515 69.565053 27.739270 -2.521860 2.836411 -33.819552 12.714254 -6.836312 5.725859 -0.653321 0.000000 0.000000 0.000000 28.993870 10.258184 -14.043921 5.085269 4.542716 -12.808917 11.240863 8.533206 -4.522011 0.160857 0.322748 0.020030 0.000000 0.000000 0.000000 15.218295 9.594251 -5.203956 -17.259294 0.647262 12.050066 -34.104770 -31.774839 13.298171 0.000000 0.000000 0.000000 11.660167 8.946203 -5.150215 0.023878 5.541184 -1.143983 6.400455 -0.752119 -0.549671 7.859503 -44.966441 -22.649076 -14.169947 -28.463772 -6.221408 0.000000 0.000000 0.000000 13.522254 8.847768 -4.364965 -3.057444 12.992115 -13.071724 -1.630652 0.306713 0.999463 -32.643711 58.845556 52.999109 -15.511587 26.046291 -2.774453 0.000000 0.000000 0.000000 
0.062766 29.689236 16.852955 0.000000 0.000000 0.000000 25.841756 4.041204 -9.104559 -83.948284 1.407689 16.212612 58.588447 5.044228 -8.323071 0.239376 -2.315210 12.091724 -0.134628 1.289874 3.527419 0.000000 0.000000 0.000000 26.949346 5.155014 -10.513856 -9.309195 -27.869921 -20.927341 66.468102 27.872810 -3.200937 0.850107 -31.759348 10.685746 -8.914846 5.707929 -2.410651 0.000000 0.000000 0.000000 26.998455 10.952902 -13.818318 5.099362 2.379458 -13.047805 10.932139 7.283732 -4.406293 0.113349 0.341054 -0.009798 0.000000 0.000000 0.000000 14.886809 8.340921 -5.061392 -16.526869 1.232215 10.685588 -33.798805 -27.401128 15.326234 0.000000 0.000000 0.000000 11.263008 7.711080 -5.049239 -0.105864 7.037846 -0.567038 7.034961 -1.671133 -0.728439 5.812637 -49.328589 -14.869440 -13.898124 -26.161363 -5.754530 0.000000 0.000000 0.000000 13.350097 7.635081 -4.241017 -2.733828 12.779607 -13.872318 -2.111467 0.506891 0.960628 -28.179646 55.928574 44.986891 -14.563258 25.045137 -5.617945 0.000000 0.000000 0.000000 
0.115198 29.730768 17.493229 0.000000 0.000000 0.000000 23.964931 4.802228 -9.146737 -80.586246 2.191979 14.716191 58.881183 5.858969 -7.239158 -2.633553 -1.907926 11.551257 0.683331 1.147304 2.669810 0.000000 0.000000 0.000000 24.729712 6.050501 -10.547713 -11.317304 -26.176734 -19.560890 63.024368 27.955373 -3.800453 0.406462 -29.162087 9.512301 -12.019440 5.537409 -3.192370 0.000000 0.000000 0.000000 24.894419 11.415521 -13.767429 5.077461 0.373542 -13.004618 10.798832 5.782923 -4.496778 0.123260 0.297990 -0.014090 0.000000 0.000000 0.000000 14.729078 6.831810 -5.137251 -15.591199 2.000210 9.172658 -32.816310 -22.708537 17.768085 0.000000 0.000000 0.000000 11.243014 6.181619 -5.134800 -0.260393 8.081984 0.304352 7.518561 -2.352827 -0.968379 1.256583 -53.179959 -9.327603 -13.605442 -23.293001 -5.625732 0.000000 0.000000 0.000000 13.470998 6.123275 -4.327880 -2.111487 12.764706 -15.393961 -2.559911 0.606316 0.641153 -24.736771 52.883969 38.018172 -14.312293 24.517628 -7.539859 0.000000 0.000000 0.000000 
0.186595 29.894062 18.143257 0.000000 0.000000 0.000000 22.117143 5.179718 -9.520710 -76.867926 2.898346 13.651392 59.146310 6.618135 -5.972634 -5.091233 -1.576756 11.271323 1.296181 1.005390 1.583772 0.000000 0.000000 0.000000 22.538870 6.777654 -10.878956 -12.841148 -24.965139 -18.029930 58.375223 27.744146 -4.317818 -0.025501 -26.263201 8.884424 -15.487061 5.390627 -3.770241 0.000000 0.000000 0.000000 22.615986 11.663026 -13.967322 5.085891 -1.523424 -12.629459 10.808711 4.091732 -4.703348 0.158022 0.245636 0.001879 0.000000 0.000000 0.000000 14.648988 5.126285 -5.329995 -14.401372 2.879288 7.614256 -31.334623 -17.777353 20.417686 0.000000 0.000000 0.000000 11.569348 4.410896 -5.270410 -0.425239 8.516901 1.445414 7.796950 -2.741996 -1.122186 -5.834228 -56.021109 -6.749268 -13.134307 -20.163830 -5.634486 0.000000 0.000000 0.000000 13.812429 4.377043 -4.530970 -1.283268 12.840394 -17.431027 -2.678623 0.844972 0.322773 -22.668213 49.874284 32.110823 -14.825013 24.731929 -8.331540 0.000000 0.000000 0.000000 
0.279594 30.127333 18.755777 0.000000 0.000000 0.000000 20.310850 5.174437 -10.295855 -73.119484 3.630543 13.368930 59.380408 7.196695 -4.605817 -7.063365 -1.434341 11.161566 1.636801 0.860531 0.468884 0.000000 0.000000 0.000000 20.505251 7.181155 -11.545802 -13.712582 -24.297785 -16.157946 52.083218 27.231017 -4.572837 -1.404503 -23.280905 8.638903 -18.515936 5.431571 -4.743174 0.000000 0.000000 0.000000 20.237388 11.607812 -14.410927 5.125014 -3.379701 -11.929748 10.941853 2.283717 -4.885396 0.194034 0.203638 0.025216 0.000000 0.000000 0.000000 14.582929 3.302322 -5.474979 -13.039519 3.773274 6.129195 -29.616964 -12.642619 23.001763 0.000000 0.000000 0.000000 12.099517 2.504990 -5.297145 -0.561427 8.384435 2.781898 7.548312 -3.018660 -1.404238 -14.911889 -57.675825 -7.058072 -12.304327 -17.195585 -5.668008 0.000000 0.000000 0.000000 14.189681 2.479884 -4.688109 -0.387374 13.038404 -19.647051 -2.422364 1.079257 0.122500 -23.194800 47.114754 28.001448 -16.140075 25.463466 -7.917056 0.000000 0.000000 0.000000 
0.379412 30.424278 19.337605 0.000000 0.000000 0.000000 18.435751 4.615669 -11.386315 -69.550956 4.564317 13.998892 59.469774 7.393787 -3.135291 -8.706251 -1.629809 10.927008 1.721213 0.706136 -0.442140 0.000000 0.000000 0.000000 18.658494 7.180147 -12.553671 -14.302621 -24.162950 -14.254588 44.884062 26.585681 -4.574112 -3.233215 -20.405416 9.434601 -19.133149 5.687161 -6.322591 0.000000 0.000000 0.000000 17.870338 11.154356 -15.082526 5.166773 -5.153574 -10.944189 11.116326 0.462846 -4.941415 0.224258 0.185109 0.044437 0.000000 0.000000 0.000000 14.476475 1.469399 -5.460165 -11.642505 4.620355 4.829212 -27.935974 -7.429683 25.283301 0.000000 0.000000 0.000000 12.702238 0.600122 -5.098225 -0.625258 7.792725 4.210125 7.118245 -3.123828 -1.540962 -24.666473 -58.222322 -9.427508 -11.084904 -14.850187 -5.669145 0.000000 0.000000 0.000000 14.468943 0.552231 -4.670935 0.327202 13.246850 -21.529212 -1.728737 1.477170 0.273709 -27.042768 44.594496 26.257218 -18.260678 26.541007 -6.306720 0.000000 0.000000 0.000000 
0.500414 30.792519 19.833525 0.000000 0.000000 0.000000 16.591711 3.628640 -12.680149 -66.253327 5.813364 15.350352 59.292770 7.271001 -1.509375 -10.178344 -2.108775 10.453856 1.815992 0.528599 -1.033409 0.000000 0.000000 0.000000 16.791561 6.632796 -13.785623 -15.417774 -24.338993 -12.751093 37.752641 25.821810 -4.330991 -4.041696 -17.818557 11.920120 -16.711426 6.033831 -8.557211 0.000000 0.000000 0.000000 15.701770 10.266009 -15.925805 5.195014 -6.785733 -9.711584 11.259978 -1.265163 -4.825724 0.244775 0.184516 0.040636 0.000000 0.000000 0.000000 14.318396 -0.251854 -5.234458 -10.384100 5.397585 3.767201 -26.603023 -2.455543 27.026763 0.000000 0.000000 0.000000 13.229860 -1.172249 -4.662287 -0.587815 6.924672 5.617198 6.722449 -3.327117 -1.397805 -33.889025 -58.115334 -12.833480 -9.575052 -13.348880 -5.703439 0.000000 0.000000 0.000000 14.579561 -1.261199 -4.446485 0.785822 13.454869 -22.738075 -0.961450 1.561881 0.880015 -34.503370 41.907070 27.299928 -21.154204 27.500715 -3.588889 0.000000 0.000000 0.000000 
